<?xml version="1.0" encoding="UTF-8"?>
<svg width="88px" height="56px" viewBox="0 0 88 56" version="1.1" xmlns="http://www.w3.org/2000/svg" xmlns:xlink="http://www.w3.org/1999/xlink">
    <!-- Generator: Sketch 62 (91390) - https://sketch.com -->
    <title>logo-EN</title>
    <desc>Created with Sketch.</desc>
    <g id="Symbols" stroke="none" stroke-width="1" fill="none" fill-rule="evenodd">
        <g id="header/main-nav" transform="translate(-32.000000, -18.000000)" fill="#FFFFFF" fill-rule="nonzero">
            <g id="header/main">
                <g id="logo-EN" transform="translate(32.000000, 18.000000)">
                    <polygon id="Path" points="12.3264368 37.5586207 9.2045977 37.462069 10.2344828 29.4804598 4.89195402 28.8689655 0.482758621 51.462069 7.46666667 50.4643678 8.62528736 41.8712644 11.908046 41.8390805 11.0712644 49.9816092 17.7977011 49.0482759 18.3126437 30.3494253 13.0988506 29.7701149"></polygon>
                    <polygon id="Path" points="25.6183908 44.2528736 25.4574713 40.8413793 31.5724138 40.4551724 31.154023 37.4298851 25.2643678 37.6229885 25.1356322 34.5977011 31.0252874 34.7264368 30.5103448 31.7011494 19.6965517 30.5103448 19.5034483 48.8229885 33.1172414 46.9563218 32.537931 43.6091954"></polygon>
                    <polygon id="Path" points="37.3011494 44.091954 36.2712644 31.1862069 31.7333333 31.6689655 34.1793103 46.9885057 39.9402299 49.3701149 39.8758621 44.8"></polygon>
                    <path d="M43.5448276,35.4022989 C43.5448276,34.6298851 43.7701149,34.2114943 44.3816092,34.1793103 C45.1218391,34.1149425 45.3793103,34.7586207 45.3793103,35.2413793 C45.3793103,35.5954023 45.3471264,35.8206897 45.3471264,35.8206897 L45.2827586,36.5287356 L48.983908,36.6896552 L49.0804598,36.2068966 C49.0804598,36.2068966 49.1770115,35.3701149 49.1770115,34.8551724 C49.2091954,30.2850575 46.4735632,30.1885057 45.1862069,30.091954 C43.6413793,29.9632184 39.8114943,30.6390805 39.8114943,35.1770115 C39.8114943,37.7195402 40.7770115,39.0712644 41.8712644,40.4873563 C43.1586207,42.0965517 44.7034483,43.2873563 44.7034483,45.2827586 C44.7034483,45.9264368 44.7034483,46.891954 43.9310345,46.7954023 C43.1908046,46.6988506 43.2551724,45.8298851 43.2551724,45.4758621 L43.2551724,44.2850575 L40.262069,43.6735632 L40.262069,45.9908046 C40.262069,47.7287356 40.937931,49.0804598 42.0321839,50.1103448 C42.8689655,50.9149425 44.1563218,51.462069 44.9931034,51.462069 C45.9908046,51.462069 46.7954023,50.754023 47.3747126,49.4666667 C47.954023,48.1793103 48.2758621,46.2804598 48.2758621,44.7034483 C48.2758621,39.0712644 43.5448276,38.2344828 43.5448276,35.4022989" id="Path"></path>
                    <polygon id="Path" points="50.6896552 29.6413793 48.1149425 52.7172414 51.1724138 54.0045977 55.3563218 29.1586207"></polygon>
                    <polygon id="Path" points="63.2735632 28.6114943 60.7954023 40.7448276 60.9563218 28.5471264 56.8689655 28.9655172 52.3632184 54.4873563 55.9678161 55.9678161 58.3816092 42.3862069 58.0275862 55.7747126 62.4045977 54.5517241 68.2942529 29.5448276"></polygon>
                    <polygon id="Path" points="82.3264368 32.1517241 77.4988506 31.2505747 72.8643678 38.0735632 74.6988506 30.7356322 69.9034483 29.8022989 64.2390805 54.0367816 69.5172414 52.5241379 71.3195402 44.8321839 71.8988506 44.0275862 72.5103448 51.6551724 77.6275862 50.2068966 76.5333333 40.0045977"></polygon>
                    <polygon id="Path" points="82.9057471 32.2482759 78.2068966 50.045977 82.9057471 48.6942529 87.2505747 33.0528736"></polygon>
                    <polygon id="Path" points="35.9172414 29.7701149 34.3402299 13.7103448 29.0942529 15.4482759 31.5724138 30.4137931"></polygon>
                    <path d="M41.0666667,24.6206897 L43.2229885,24.137931 L43.9310345,28.6114943 L48.2114943,28 L45.5402299,9.94482759 L38.4275862,12.5195402 L36.5609195,29.6735632 L40.7448276,29.062069 L41.0666667,24.6206897 Z M41.9356322,14.6114943 L42.9655172,21.3057471 L41.291954,21.691954 L41.9356322,14.6114943 Z" id="Shape"></path>
                    <polygon id="Path" points="69.2597701 27.0988506 73.5402299 8.36781609 76.3724138 9.71954023 77.4666667 5.02068966 70.8689655 1.67356322 65.4298851 3.50804598 64.5931034 8.23908046 68.3586207 7.08045977 64.1425287 26.0367816"></polygon>
                    <path d="M76.4045977,12.9057471 C76.4045977,15.5770115 77.3701149,17.5724138 78.4643678,19.0850575 C79.5586207,20.5977011 80.4597701,22.2712644 80.4597701,23.3977011 C80.4597701,24.6528736 80.137931,25.2643678 79.4298851,25.2 C78.754023,25.1356322 78.2390805,24.7816092 78.2390805,24.0735632 C78.2390805,23.108046 78.3678161,22.4643678 78.3678161,22.4643678 L74.0873563,21.1448276 C74.0873563,21.1448276 73.9586207,21.6597701 73.862069,22.1103448 C73.7977011,22.4643678 73.6045977,23.6873563 73.6045977,24.2666667 C73.6045977,27.5816092 76.6298851,29.8022989 79.8804598,29.6735632 C81.4252874,29.6091954 84.7402299,28.8689655 84.7402299,23.3977011 C84.7402299,21.2091954 84.0643678,19.5356322 83.1310345,18.1195402 C81.9724138,16.2850575 80.845977,14.6758621 80.845977,12.8091954 C80.845977,11.4896552 81.3931034,11.4252874 81.6827586,11.4252874 C82.3586207,11.4252874 82.7770115,11.8758621 82.7770115,12.6482759 C82.7770115,13.2275862 82.4873563,14.1931034 82.4873563,14.1931034 L86.3172414,15.737931 C86.3172414,15.737931 86.7356322,14.5793103 86.7356322,12.9701149 C86.7356322,11.4574713 86.1563218,9.68735632 85.062069,8.62528736 C84,7.53103448 82.0045977,6.66206897 80.7172414,6.66206897 C79.5264368,6.66206897 78.3034483,7.14482759 77.6275862,8.14252874 C76.6942529,9.46206897 76.4045977,11.2643678 76.4045977,12.9057471" id="Path"></path>
                    <path d="M54.0689655,19.6965517 L55.6137931,19.1494253 L56.8367816,26.6804598 L62.1149425,25.9402299 L60.3126437,17.154023 C60.3126437,17.154023 64.1425287,14.4183908 64.1425287,8.56091954 C64.1425287,7.72413793 63.8850575,6.69425287 63.337931,6.05057471 C62.308046,4.85977011 60.183908,4.92413793 58.8321839,5.37471264 C58.0597701,5.63218391 50.045977,8.4 50.045977,8.4 L48.8229885,27.9034483 L53.4574713,27.2275862 L54.0689655,19.6965517 Z M54.9057471,10.8137931 C55.1310345,10.7172414 55.4206897,10.6206897 55.7103448,10.5241379 C56.2574713,10.3310345 56.9333333,10.1057471 57.2551724,10.2344828 C57.7701149,10.4597701 57.8988506,11.1678161 57.8022989,11.8436782 C57.6735632,12.6804598 57.2551724,14.4505747 55.7103448,15.2229885 C55.3241379,15.416092 54.4229885,15.6413793 54.4229885,15.6413793 L54.9057471,10.8137931 Z" id="Shape"></path>
                    <path d="M3.70114943,23.7195402 C4.31264368,25.0390805 5.50344828,26.4229885 6.98390805,27.0666667 C8.20689655,27.5816092 9.5908046,28.0643678 12.1655172,28.0643678 C13.2597701,28.0643678 14.5793103,27.9678161 15.383908,27.0988506 C15.8988506,26.5517241 16.1241379,25.6183908 16.0275862,24.9103448 C15.8666667,23.5908046 15.5770115,22.3034483 15.3195402,21.016092 L13.4850575,12.3264368 L8.20689655,11.1678161 C8.20689655,11.1678161 10.5563218,22.0781609 10.6528736,22.7218391 C10.7494253,23.3977011 10.8137931,23.6229885 10.8137931,23.816092 C10.8137931,24.137931 10.5885057,24.6528736 9.71954023,24.4597701 C8.91494253,24.2666667 8.75402299,23.3977011 8.52873563,22.5931034 C8.27126437,21.7241379 5.79310345,10.6206897 5.79310345,10.6206897 L0.193103448,9.39770115 C0.193103448,9.39770115 2.31724138,18.7632184 2.57471264,19.9218391 C2.8,20.8551724 3.1862069,22.6252874 3.70114943,23.7195402" id="Path"></path>
                    <polygon id="Path" points="23.3333333 29.3517241 21.4988506 21.5954023 26.3586207 29.7701149 30.1563218 30.3816092 27.4528736 15.383908 22.2712644 14.3218391 23.783908 21.4022989 19.1494253 13.5816092 15.0298851 12.6482759 18.4091954 28.6436782"></polygon>
                    <polygon id="Path" points="26.5195402 3.15402299 23.6551724 0.289655172 21.3701149 2.57471264 24.2344828 5.43908046 21.3701149 8.30344828 23.6551724 10.6206897 26.5195402 7.72413793 29.416092 10.6206897 31.7011494 8.30344828 28.8045977 5.43908046 31.7011494 2.57471264 29.416092 0.289655172"></polygon>
                </g>
            </g>
        </g>
    </g>
</svg>